<svg xmlns="http://www.w3.org/2000/svg" width="80" height="73.421" viewBox="0 0 80 73.421">
  <defs>
    <style>
      .cls-1 {
        fill: #aaa;
      }
    </style>
  </defs>
  <g id="组_79" data-name="组 79" transform="translate(-843.657 -388.199)">
    <path id="路径_50" data-name="路径 50" class="cls-1" d="M911.256,450.325h-55.2a12.267,12.267,0,0,1-8.769-3.663,12.478,12.478,0,0,1-3.632-8.844V400.706a12.468,12.468,0,0,1,12.4-12.507h55.2a12.269,12.269,0,0,1,8.769,3.663h0a12.479,12.479,0,0,1,3.632,8.843v37.112a12.478,12.478,0,0,1-3.632,8.844A12.271,12.271,0,0,1,911.256,450.325Zm-55.2-55.668a6.03,6.03,0,0,0-6,6.049v37.112a6.033,6.033,0,0,0,1.757,4.277,5.934,5.934,0,0,0,4.241,1.772h55.2a5.934,5.934,0,0,0,4.242-1.772,6.035,6.035,0,0,0,1.757-4.277V400.706a6.035,6.035,0,0,0-1.757-4.277h0a5.931,5.931,0,0,0-4.241-1.772Z" transform="translate(0 0)"/>
    <g id="组_77" data-name="组 77" transform="translate(866.909 398.065)">
      <path id="路径_51" data-name="路径 51" class="cls-1" d="M952.9,464.712H936.407a2.749,2.749,0,0,0-2.749,2.749v4.123a2.75,2.75,0,0,0,2.749,2.749H952.9a2.75,2.75,0,0,0,2.749-2.749v-4.123a2.749,2.749,0,0,0-2.749-2.749Z" transform="translate(-915.791 -439.286)"/>
      <path id="路径_52" data-name="路径 52" class="cls-1" d="M954.843,426.781a2.747,2.747,0,0,0-1.943-.805H936.407a2.749,2.749,0,0,0-2.749,2.749v4.123a2.749,2.749,0,0,0,2.749,2.749H952.9a2.749,2.749,0,0,0,2.749-2.749v-4.123A2.747,2.747,0,0,0,954.843,426.781Z" transform="translate(-915.791 -418.417)"/>
      <path id="路径_53" data-name="路径 53" class="cls-1" d="M930.448,474.8v-4.131l-2.748,2.066Z" transform="translate(-912.581 -442.494)"/>
      <path id="路径_54" data-name="路径 54" class="cls-1" d="M930.448,436.062v-4.131L927.7,434Z" transform="translate(-912.581 -421.625)"/>
      <path id="路径_55" data-name="路径 55" class="cls-1" d="M905.918,421.958a5.5,5.5,0,0,0-3.436-5.094v-5.214a2.062,2.062,0,0,0-4.124,0v5.214a5.494,5.494,0,0,0,0,10.188v7.679a5.494,5.494,0,0,0,0,10.188v6.589a2.062,2.062,0,0,0,4.124,0v-6.589a5.494,5.494,0,0,0,0-10.188v-7.679A5.5,5.5,0,0,0,905.918,421.958Zm-2.062,17.867a3.436,3.436,0,1,1-3.436-3.436A3.437,3.437,0,0,1,903.856,439.825Zm-3.436-14.431a3.436,3.436,0,1,1,3.436-3.436A3.437,3.437,0,0,1,900.42,425.394Z" transform="translate(-894.922 -409.588)"/>
    </g>
    <rect id="矩形_29" data-name="矩形 29" class="cls-1" width="63.087" height="8.13" rx="4.065" transform="translate(853.156 453.491)"/>
  </g>
</svg>
