<svg xmlns="http://www.w3.org/2000/svg" width="116" height="116" viewBox="0 0 116 116">
  <defs>
    <style>
      .cls-1 {
        fill: none;
      }

      .cls-2 {
        fill: #fff;
      }
    </style>
  </defs>
  <g id="组_160" data-name="组 160" transform="translate(-0.097 -0.112)">
    <rect id="矩形_60" data-name="矩形 60" class="cls-1" width="116" height="116" transform="translate(0.097 0.112)"/>
    <g id="组_158" data-name="组 158" transform="translate(3.319 14.351)">
      <path id="路径_80" data-name="路径 80" class="cls-2" d="M652.819,494.6l-5.92-3.176-6.356,2.175,1.634-5.572-4.638-4.419,6.93-.267,3.489-4.906,2.648,5.407,6.8,1.386-5.293,3.609Z" transform="translate(-621.104 -415.84)"/>
      <path id="路径_81" data-name="路径 81" class="cls-2" d="M653,520.025h15.107l-.174-86.65Z" transform="translate(-615.087 -433.375)"/>
      <path id="路径_82" data-name="路径 82" class="cls-2" d="M690.041,439.73s-12.85.347-17.886,3.647c0,0,36.292-3.994,35.945,17.712-.3,18.569-23.58,31.918-30.309,35.392L666.64,434l-.174.043-.215,85.044,14.064-3.3-1.38-12.15c5.627-2.8,32.511-16.626,37.326-27.963C721.644,463,724.249,441.988,690.041,439.73Z" transform="translate(-609.93 -433.132)"/>
      <path id="路径_83" data-name="路径 83" class="cls-2" d="M651.47,451.155l-1.486-.561-1.421.709.209-1.359-1.045-1.1,1.615-.28.664-1.261.789,1.187,1.715.057-1.387,1.272Z" transform="translate(-617.139 -427.952)"/>
      <path id="路径_84" data-name="路径 84" class="cls-2" d="M637.819,456.273l-1.223,2.618-3.4.844,2.745,1.548-.237,2.731,2.919-1.662,3.251.843-.941-2.575,2.247-2.21-3.5.071Z" transform="translate(-622.793 -424.464)"/>
      <path id="路径_85" data-name="路径 85" class="cls-2" d="M657.926,473.256l-6.253-1.634-5.417,3.526.228-5.645-5.348-3.1,6.395-1.855,2.112-5.445,3.724,4.5,6.653-.26-4.094,4.635Z" transform="translate(-619.704 -423.364)"/>
      <path id="路径_86" data-name="路径 86" class="cls-2" d="M635.069,482.08l-3.82-2.71-4.44,1.493,1.445-4.335-2.546-3.31,4.382-.3,4.011-3.893.26,4.254,4.573.145-4,4.093Z" transform="translate(-625.708 -419.502)"/>
    </g>
  </g>
</svg>
