<svg xmlns="http://www.w3.org/2000/svg" width="71.588" height="81.734" viewBox="0 0 71.588 81.734">
  <defs>
    <style>
      .cls-1, .cls-2, .cls-3 {
        fill: #fff;
      }

      .cls-2, .cls-3 {
        stroke: #000;
        stroke-linecap: round;
        stroke-miterlimit: 10;
      }

      .cls-2 {
        stroke-width: 14px;
      }

      .cls-3 {
        stroke-width: 13px;
      }
    </style>
  </defs>
  <g id="组_81" data-name="组 81" transform="translate(-1122.5 -382.5)">
    <path id="路径_61" data-name="路径 61" class="cls-1" d="M1230.718,478.028l-.1-.3-.051-.093a4.7,4.7,0,0,0-2.288-1.915l-.418-.182a5.918,5.918,0,0,0-3.39-.173,4.437,4.437,0,0,0-2.58-1.843,6.441,6.441,0,0,0-4.37-.05,4.019,4.019,0,0,0-.42.164,10.668,10.668,0,0,0-1.439-.884,6.457,6.457,0,0,0-2.679-.283v-4.679a4.63,4.63,0,0,0-3.259-4.54,5.573,5.573,0,0,0-2.247-.414,5.7,5.7,0,0,0-2.21.414,4.765,4.765,0,0,0-3.3,4.582v11.919c-.2-.012-.374-.012-.525-.012a5.8,5.8,0,0,0-2.109.407,4.68,4.68,0,0,0-3.4,4.589v7.828l.14,2.083c.271,1.67.874,2.415,2.492,4.411l4.056,4.682a2.3,2.3,0,0,0,1.613.726,3.212,3.212,0,0,0,1.726-.4,2.309,2.309,0,0,0,.96-1.58,2.063,2.063,0,0,0-.379-1.453v-.047l-4.135-4.788c-1.5-1.739-1.5-1.739-1.5-4.344V484.6a.365.365,0,0,1,.235-.353,1.046,1.046,0,0,1,.616.034c.071.019.16.042.16.364v6.207a2.446,2.446,0,0,0,4.874,0V467.783a.331.331,0,0,1,.244-.366,1.587,1.587,0,0,1,.494-.03l.062.016c.111.043.211.1.211.381v13.934a2.446,2.446,0,0,0,4.874,0v-4.275c0-.272.1-.327.181-.359a1.736,1.736,0,0,1,.508-.037l.077.016c.083.032.21.081.21.38v4.28a2.446,2.446,0,0,0,4.874,0v-3.754a.377.377,0,0,1,.158-.321,1.314,1.314,0,0,0,.34-.069,2.142,2.142,0,0,1,.344-.023l.1.039c.255.088.268.188.268.344v3.754a2.446,2.446,0,0,0,4.874,0v-1.552a.576.576,0,0,1,.251-.382,1.937,1.937,0,0,1,.495.025l.118.023a.338.338,0,0,1,.155.334v14.45l-2.02,7.073-.018.442a2.4,2.4,0,0,0,2.092,2.237,1.08,1.08,0,0,1,.133.011,1.928,1.928,0,0,0,.246.019,2.587,2.587,0,0,0,2.5-1.662l2.034-7.341.269-16.121Z" transform="translate(-36.776 -40.233)"/>
    <path id="路径_62" data-name="路径 62" class="cls-1" d="M1154.158,457.129H1136.5c-7.721,0-14-5.975-14-13.318V395.818c0-7.344,6.281-13.318,14-13.318h40.384c7.721,0,14,5.975,14,13.318v31.109a3.494,3.494,0,1,1-6.989,0V395.818c0-3.49-3.146-6.33-7.014-6.33H1136.5c-3.867,0-7.014,2.839-7.014,6.33V443.81c0,3.49,3.146,6.33,7.014,6.33h17.656a3.494,3.494,0,1,1,0,6.989Z"/>
    <path id="路径_63" data-name="路径 63" class="cls-2" d="M1185.5,525" transform="translate(-31.551 -71.366)"/>
    <path id="路径_64" data-name="路径 64" class="cls-3" d="M1247.75,471.5" transform="translate(-62.727 -44.572)"/>
    <rect id="矩形_30" data-name="矩形 30" class="cls-1" width="33.446" height="7.488" rx="3.744" transform="translate(1139.597 399.722)"/>
    <rect id="矩形_31" data-name="矩形 31" class="cls-1" width="33.446" height="7.488" rx="3.744" transform="translate(1139.597 411.952)"/>
    <rect id="矩形_32" data-name="矩形 32" class="cls-1" width="18.345" height="7.488" rx="3.744" transform="translate(1139.597 423.683)"/>
  </g>
</svg>
