<svg xmlns="http://www.w3.org/2000/svg" xmlns:xlink="http://www.w3.org/1999/xlink" width="50" height="50" viewBox="0 0 50 50">
  <defs>
    <style>
      .cls-1 {
        fill: #06080a;
      }

      .cls-2 {
        clip-path: url(#clip-path);
      }
    </style>
    <clipPath id="clip-path">
      <rect id="矩形_18" data-name="矩形 18" class="cls-1" width="50" height="50"/>
    </clipPath>
  </defs>
  <g id="组_152" data-name="组 152" transform="translate(-550.565 -131)">
    <g id="组_70" data-name="组 70" transform="translate(550.565 131)">
      <g id="组_69" data-name="组 69" class="cls-2" transform="translate(0 0)">
        <path id="路径_47" data-name="路径 47" class="cls-1" d="M550.565,157.317v-2.8c.021-.1.047-.193.061-.291.164-1.173.243-2.365.5-3.516a24.409,24.409,0,0,1,12.792-16.838,24.976,24.976,0,0,1,36.413,18.96c.06.48.118.961.177,1.441v3.35c-.021.1-.05.19-.062.286-.091.744-.147,1.494-.273,2.233a23.816,23.816,0,0,1-2.509,7.394,27.639,27.639,0,0,1-5.23,6.988c-4.4,4.18-9.754,5.978-15.687,6.339a27.387,27.387,0,0,1-7.759-.79,22.094,22.094,0,0,1-11.424-6.655,27.029,27.029,0,0,1-4.393-6.366,24.306,24.306,0,0,1-2.485-8.6c-.038-.379-.084-.758-.127-1.138Zm43.977,12.791a23.7,23.7,0,1,0-37.98-.014,42.212,42.212,0,0,1,10.856-6.051c.048.109.083.181.113.255q2.068,5.017,4.131,10.035a.429.429,0,0,0,.464.318c.263,0,.34-.124.421-.332.322-.831.651-1.66,1-2.481a.5.5,0,0,0-.078-.576c-.564-.731-1.113-1.473-1.654-2.193l3.706-3.7,3.731,3.727c-.545.726-1.107,1.484-1.681,2.233a.39.39,0,0,0-.057.442q.527,1.279,1.03,2.568c.078.2.158.317.4.311a.431.431,0,0,0,.472-.3q1.722-4.222,3.469-8.435c.254-.615.508-1.23.773-1.87a42.317,42.317,0,0,1,10.881,6.068Zm0,0" transform="translate(-550.565 -130.958)"/>
      </g>
    </g>
    <circle id="椭圆_17" data-name="椭圆 17" class="cls-1" cx="11.277" cy="11.277" r="11.277" transform="translate(564.288 139.946)"/>
  </g>
</svg>
